HIERARCHY
ROOT Hips
{
	OFFSET 0.000000 0.000000 0.000000
	CHANNELS 6 Xposition Yposition Zposition Xrotation Yrotation Zrotation
	JOINT LeftUpLeg_virtual
	{
		OFFSET 0.000000 0.000000 0.000000
		CHANNELS 3 Xrotation Yrotation Zrotation
		JOINT LeftUpLeg
		{
			OFFSET 13.026900 -6.336304 -1.092800
			CHANNELS 3 Xrotation Yrotation Zrotation
			JOINT LeftLeg
			{
				OFFSET 0.524474 -46.096886 9.782700
				CHANNELS 3 Xrotation Yrotation Zrotation
				JOINT LeftFoot
				{
					OFFSET -0.524474 -53.427422 -12.948200
					CHANNELS 3 Xrotation Yrotation Zrotation
					JOINT LeftToeBase
					{
						OFFSET 0.192200 -14.009700 16.364100
						CHANNELS 3 Xrotation Yrotation Zrotation
						JOINT LeftToe_End
						{
							OFFSET -1.784700 -0.561700 9.474800
							CHANNELS 3 Xrotation Yrotation Zrotation
							End Site
							{
								OFFSET 0 0 0
							}
						}
					}
				}
			}
		}
	}
	JOINT RightUpLeg_virtual
	{
		OFFSET 0.000000 0.000000 0.000000
		CHANNELS 3 Xrotation Yrotation Zrotation
		JOINT RightUpLeg
		{
			OFFSET -12.883000 -6.336304 -1.092800
			CHANNELS 3 Xrotation Yrotation Zrotation
			JOINT RightLeg
			{
				OFFSET -0.524587 -46.096825 9.782800
				CHANNELS 3 Xrotation Yrotation Zrotation
				JOINT RightFoot
				{
					OFFSET 0.524587 -53.427383 -12.948300
					CHANNELS 3 Xrotation Yrotation Zrotation
					JOINT RightToeBase
					{
						OFFSET -0.192200 -14.009700 16.364100
						CHANNELS 3 Xrotation Yrotation Zrotation
						JOINT RightToe_End
						{
							OFFSET 1.784700 -0.561700 9.474800
							CHANNELS 3 Xrotation Yrotation Zrotation
							End Site
							{
								OFFSET 0 0 0
							}
						}
					}
				}
			}
		}
	}
	JOINT Spine_virtual
	{
		OFFSET 0.000000 0.000000 0.000000
		CHANNELS 3 Xrotation Yrotation Zrotation
		JOINT Spine
		{
			OFFSET 0.072000 7.257294 -0.789700
			CHANNELS 3 Xrotation Yrotation Zrotation
			JOINT Spine1
			{
				OFFSET 0.000000 12.508769 -0.658067
				CHANNELS 3 Xrotation Yrotation Zrotation
				JOINT Spine1_split
				{
					OFFSET 0.000000 12.508769 -0.658067
					CHANNELS 3 Xrotation Yrotation Zrotation
					JOINT Spine2
					{
						OFFSET 0.000000 12.508769 -0.658067
						CHANNELS 3 Xrotation Yrotation Zrotation
						JOINT Neck_virtual
						{
							OFFSET 0.000000 0.000000 0.000000
							CHANNELS 3 Xrotation Yrotation Zrotation
							JOINT Neck
							{
								OFFSET 0.000000 14.033295 7.520400
								CHANNELS 3 Xrotation Yrotation Zrotation
								JOINT Head
								{
									OFFSET 0.000000 8.198502 5.703100
									CHANNELS 3 Xrotation Yrotation Zrotation
									JOINT HeadTop_End
									{
										OFFSET 0.000000 17.760803 13.332701
										CHANNELS 3 Xrotation Yrotation Zrotation
										End Site
										{
											OFFSET 0 0 0
										}
									}
								}
							}
						}
						JOINT LeftShoulder_virtual
						{
							OFFSET 0.000000 0.000000 0.000000
							CHANNELS 3 Xrotation Yrotation Zrotation
							JOINT LeftShoulder
							{
								OFFSET 6.292450 5.785301 -0.669000
								CHANNELS 3 Xrotation Yrotation Zrotation
								JOINT LeftShoulder_split
								{
									OFFSET 6.292450 5.785301 -0.669000
									CHANNELS 3 Xrotation Yrotation Zrotation
									JOINT LeftArm
									{
										OFFSET 13.907140 -6.093903 1.965100
										CHANNELS 3 Xrotation Yrotation Zrotation
										JOINT LeftForeArm
										{
											OFFSET 34.140198 0.000000 0.000000
											CHANNELS 3 Xrotation Yrotation Zrotation
											JOINT LeftHand
											{
												OFFSET 40.960209 0.000000 0.000000
												CHANNELS 3 Xrotation Yrotation Zrotation
												End Site
												{
													OFFSET 0 0 0
												}
											}
										}
									}
								}
							}
						}
						JOINT RightShoulder_virtual
						{
							OFFSET 0.000000 0.000000 0.000000
							CHANNELS 3 Xrotation Yrotation Zrotation
							JOINT RightShoulder
							{
								OFFSET -6.292450 5.785301 -0.669000
								CHANNELS 3 Xrotation Yrotation Zrotation
								JOINT RightShoulder_split
								{
									OFFSET -6.292450 5.785301 -0.669000
									CHANNELS 3 Xrotation Yrotation Zrotation
									JOINT RightArm
									{
										OFFSET -13.907140 -6.093903 1.965100
										CHANNELS 3 Xrotation Yrotation Zrotation
										JOINT RightForeArm
										{
											OFFSET -34.140198 0.000000 0.000000
											CHANNELS 3 Xrotation Yrotation Zrotation
											JOINT RightHand
											{
												OFFSET -40.960209 0.000000 0.000000
												CHANNELS 3 Xrotation Yrotation Zrotation
												End Site
												{
													OFFSET 0 0 0
												}
											}
										}
									}
								}
							}
						}
					}
				}
			}
		}
	}
}
MOTION
Frames: 7
Frame Time: 0.03333333
10.948946 76.961884 68.091637 0.000000 0.000000 0.000000 -17.007552 -50.280438 -10.700748 -48.819020 -7.798129 30.794400 56.198896 -7.201279 4.668794 -1.177776 -10.826538 -28.446467 -2.303566 0.184884 0.584483 0.000000 0.000000 0.000000 -18.059206 -45.064290 -9.883398 -28.560183 1.283537 -38.160185 77.258749 12.933050 -8.256172 -2.221021 -6.643325 19.627032 -14.461519 -1.113012 7.333742 0.000000 0.000000 0.000000 -16.519799 -42.869426 -10.853919 25.610754 3.950792 -10.051075 -0.815124 1.247764 0.404402 1.674116 -0.915362 1.066642 0.000000 0.000000 0.000000 0.808833 0.842115 0.867270 1.232663 14.939231 0.521324 0.946530 21.827946 -5.112235 0.000000 0.000000 0.000000 0.107961 1.025437 0.870893 0.839963 1.689720 -8.412529 -0.026287 -2.283726 2.069730 -60.055975 5.283666 -44.127018 -175.562035 -67.270301 -173.910468 0.000000 0.000000 0.000000 0.135747 0.470171 0.683415 2.668100 12.082349 -4.162472 -8.057421 -1.953310 2.042512 -45.185451 22.610807 86.883551 -174.865342 64.808209 173.003214 0.000000 0.000000 0.000000 
9.982693 78.681335 64.134995 0.000000 0.000000 0.000000 -16.271363 -50.024367 -8.421156 -46.085574 -6.979505 30.211586 49.512946 -7.740970 4.658300 2.349530 -11.109654 -30.134511 -2.510639 0.214030 0.319876 0.000000 0.000000 0.000000 -18.699294 -44.660363 -8.233659 -26.932980 -0.827526 -38.073342 76.672876 12.984092 -8.489902 -9.009984 -9.217473 22.964457 -12.693240 -0.385330 4.201914 0.000000 0.000000 0.000000 -17.981506 -43.680095 -10.004322 24.389274 5.027869 -9.224594 -0.213580 1.393596 -0.273864 0.836757 -0.222947 1.232639 0.000000 0.000000 0.000000 1.168148 0.945275 0.196217 1.608384 14.569162 0.394056 3.055052 21.349676 -5.539521 0.000000 0.000000 0.000000 0.725622 1.162348 0.180277 0.740537 2.631697 -8.155759 -0.110555 -3.581550 2.221988 -58.660287 5.319877 -45.402248 -176.720886 -65.473681 -174.751360 0.000000 0.000000 0.000000 0.698002 0.572134 -0.053446 2.491913 12.837519 -4.002874 -7.933641 -1.057916 1.258771 -46.570292 20.613555 87.422132 -173.635785 67.442388 172.075551 0.000000 0.000000 0.000000 
8.971210 80.798706 60.020493 0.000000 0.000000 0.000000 -14.270827 -48.739964 -5.406411 -44.590467 -6.194848 29.180368 43.067956 -7.702316 4.565171 5.320899 -11.526602 -30.040439 -2.787736 0.209824 -0.033174 0.000000 0.000000 0.000000 -17.774350 -43.551318 -5.772335 -23.868605 -3.610765 -36.944910 74.942932 11.878035 -7.880723 -17.406370 -12.800919 22.492882 -8.745525 0.094759 2.049593 0.000000 0.000000 0.000000 -17.986653 -43.817825 -8.164322 23.133496 5.960071 -8.599609 0.346941 1.471792 -0.981608 -0.015992 0.513600 1.366052 0.000000 0.000000 0.000000 1.419899 1.027330 -0.533434 1.947314 13.968800 0.384850 4.365629 20.253876 -5.458758 0.000000 0.000000 0.000000 1.254172 1.260619 -0.515238 0.688551 3.200231 -7.719760 -0.391400 -4.269891 1.802558 -57.972692 4.364529 -46.281085 -178.238294 -63.918549 -176.038167 0.000000 0.000000 0.000000 1.226905 0.654092 -0.829106 2.404153 13.741576 -4.394999 -6.980348 0.362047 0.623403 -47.861956 18.865399 87.375236 -172.995182 68.383895 171.561702 0.000000 0.000000 0.000000 
7.987052 82.917068 55.776695 0.000000 0.000000 0.000000 -12.045123 -47.190846 -2.725435 -44.390554 -5.289555 27.818450 39.092205 -7.316864 4.636443 6.770300 -11.880288 -28.388851 -3.295422 0.154679 -0.327038 0.000000 0.000000 0.000000 -16.011092 -42.249897 -3.364977 -20.924556 -6.525950 -34.915292 72.522190 9.859582 -6.522684 -24.747923 -15.914793 19.168381 -4.665711 0.289327 0.848893 0.000000 0.000000 0.000000 -16.883452 -43.691303 -5.968081 21.888832 6.621135 -8.116249 0.836246 1.444874 -1.505762 -0.222529 1.295857 1.343837 0.000000 0.000000 0.000000 1.532727 1.057101 -1.082681 2.211075 13.305695 0.228022 4.735521 18.902540 -5.141820 0.000000 0.000000 0.000000 1.629389 1.281920 -1.026278 0.683467 3.330787 -7.295939 -0.824708 -4.033253 0.979182 -57.988354 3.279470 -46.536357 -179.896774 -63.191770 -177.590451 0.000000 0.000000 0.000000 1.682994 0.714217 -1.398579 2.422370 14.527572 -5.398877 -5.651623 1.399688 0.491647 -49.403267 17.533314 86.531352 -173.420183 67.187628 171.986895 0.000000 0.000000 0.000000 
7.254658 84.928650 51.517288 0.000000 0.000000 0.000000 -10.031911 -46.162417 -0.877075 -45.317701 -4.107619 26.275550 39.342685 -7.141265 4.919380 6.339503 -12.316232 -26.156040 -4.055205 0.057212 -0.217277 0.000000 0.000000 0.000000 -13.871548 -41.432853 -1.596075 -19.626065 -8.845195 -32.465054 69.320375 7.958672 -4.966679 -28.469478 -17.346102 16.520378 -2.756609 0.337309 0.271192 0.000000 0.000000 0.000000 -14.846656 -43.565870 -3.855926 20.696508 6.987520 -7.670292 1.233175 1.327428 -1.701095 -0.060463 1.641068 1.314447 0.000000 0.000000 0.000000 1.521317 1.033433 -1.277950 2.312573 12.862122 -0.232930 4.239416 17.722919 -4.914616 0.000000 0.000000 0.000000 1.854066 1.208899 -1.215079 0.696683 3.061240 -7.043913 -1.424044 -3.123283 -0.198931 -58.750227 2.636055 -46.165293 178.512567 -63.623526 -179.225270 0.000000 0.000000 0.000000 2.009317 0.721893 -1.586311 2.502030 15.056602 -6.574043 -4.639593 1.615232 0.873920 -51.147076 16.552712 85.137195 -174.658456 64.634565 173.176769 0.000000 0.000000 0.000000 
6.818366 86.960503 47.207832 0.000000 0.000000 0.000000 -8.553216 -46.023010 -0.126107 -46.618688 -2.121791 24.558917 43.655011 -6.984130 5.234217 4.033658 -12.743962 -23.638837 -4.918588 -0.069867 0.325071 0.000000 0.000000 0.000000 -11.495192 -41.666708 -0.693220 -20.580198 -10.584777 -29.770667 65.277511 6.589819 -3.491941 -27.984229 -17.094386 16.109589 -3.416591 0.319750 0.018627 0.000000 0.000000 0.000000 -12.271294 -43.818433 -2.378856 19.561209 7.080799 -7.211262 1.509391 1.175409 -1.556345 0.436011 1.532567 1.032687 0.000000 0.000000 0.000000 1.441528 0.970261 -1.086873 2.305464 12.694905 -1.015213 3.123923 16.954799 -4.962325 0.000000 0.000000 0.000000 1.947971 1.079531 -1.071843 0.718199 2.455107 -6.989861 -2.008538 -1.952568 -1.272160 -60.162348 2.572495 -45.439305 177.128689 -64.919910 179.199958 0.000000 0.000000 0.000000 2.199246 0.694566 -1.367400 2.616245 15.267945 -7.601359 -3.957212 0.936884 1.463253 -52.747850 16.063889 83.682071 -175.929841 62.175676 174.413129 0.000000 0.000000 0.000000 
6.719727 89.207611 42.936001 0.000000 0.000000 0.000000 -7.223815 -46.852045 -0.328558 -47.193185 0.882014 22.631297 50.264561 -6.154555 5.295269 0.156262 -12.759526 -20.386308 -5.804155 -0.258381 1.185729 0.000000 0.000000 0.000000 -9.216491 -43.205352 -0.687513 -23.144268 -12.305417 -26.949090 60.701708 5.422211 -2.017783 -24.949851 -15.618008 16.657962 -4.603933 0.306693 -0.117028 0.000000 0.000000 0.000000 -9.327278 -44.682404 -1.652548 18.495515 6.974230 -6.706040 1.647089 1.067301 -1.185287 1.017945 1.237078 0.634070 0.000000 0.000000 0.000000 1.352909 0.907693 -0.638254 2.283063 12.811894 -1.974657 1.796753 16.666905 -5.339140 0.000000 0.000000 0.000000 1.944773 0.952177 -0.715352 0.708834 1.753007 -7.017955 -2.428201 -1.057544 -1.715989 -62.042474 3.041737 -44.527653 176.250354 -66.443554 178.014114 0.000000 0.000000 0.000000 2.266954 0.674659 -0.881175 2.770900 15.217957 -8.265623 -3.643539 -0.122025 2.056607 -54.030188 16.015153 82.594083 -176.921065 60.807323 175.384996 0.000000 0.000000 0.000000 
